/* XPM */
static char *button_min_prelight[] = {
/* columns rows colors chars-per-pixel */
"11 11 3 1 ",
"  c #525050",
". c #FCAF3E",
"X c None",
/* pixels */
"XXXXXXXXXXX",
"XXXXXXXXXXX",
"XXXXXXXXXXX",
"XXXXXXXXXXX",
"XXXXXXXXXXX",
"XXXXXXXXXXX",
"XX       XX",
"XX ..... XX",
"XX       XX",
"XXXXXXXXXXX",
"XXXXXXXXXXX"
};
