/* XPM */
static char *button_close_inactive[] = {
/* columns rows colors chars-per-pixel */
"11 11 3 1 ",
"  c #3C3838",
". c #CECAC9",
"X c None",
/* pixels */
"XXXXXXXXXXX",
"XXXXXXXXXXX",
"XXX XXX XXX",
"XX . X . XX",
"XXX . . XXX",
"XXXX . XXXX",
"XXX . . XXX",
"XX . X . XX",
"XXX XXX XXX",
"XXXXXXXXXXX",
"XXXXXXXXXXX"
};
