/* XPM */
static char *button_max[] = {
/* columns rows colors chars-per-pixel */
"11 11 3 1 ",
"  c #525050",
". c white",
"X c None",
/* pixels */
"XXXXXXXXXXX",
"XXXXXXXXXXX",
"XX       XX",
"XX ..... XX",
"XX .   . XX",
"XX . X . XX",
"XX .   . XX",
"XX ..... XX",
"XX       XX",
"XXXXXXXXXXX",
"XXXXXXXXXXX"
};
