/* XPM */
static char *title_left_sh[] = {
/* columns rows colors chars-per-pixel */
"9 22 16 1 ",
"  c #1B1B1A",
". c #655F5E",
"X c #6C6463",
"o c #7F7978",
"O c #827B79",
"+ c #867E7D",
"@ c #898181",
"# c #898281",
"$ c #8C8484",
"% c #8D8584",
"& c #908887",
"* c #938B8B",
"= c #938C8A",
"- c #978F8E",
"; c #9A9291",
": c #CECAC9",
/* pixels */
"         ",
" ::::::::",
" oooooooo",
" ;;;;;;;;",
" --------",
" =*-**===",
" *%%&&&&*",
" %%%$$$$#",
" ########",
" ++++++++",
" OOOOOOOO",
" XXXXXXXX",
" XXXXXXXX",
" XXXXXXXX",
" XXXXXXXX",
" XXXXXXXX",
" XXXXXXXX",
" XXXXXXXX",
" XXXXXXXX",
" XXXXXXXX",
" ........",
"         "
};
