/* XPM */
static char *title_max[] = {
/* columns rows colors chars-per-pixel */
"6 20 17 1 ",
"  c #1B1B1A",
". c #373535",
"X c #655F5E",
"o c #6C6463",
"O c #7F7978",
"+ c #827B7A",
"@ c #867E7D",
"# c #898180",
"$ c #898281",
"% c #8C8484",
"& c #8D8584",
"* c #908887",
"= c #938B8B",
"- c #938C8A",
"; c #978F8E",
": c #9A9291",
"> c #CECAC9",
/* pixels */
"      ",
">>>>>>",
"OOOO++",
"::::::",
";;;;;;",
"=-=;==",
"=**&*%",
"$&&%%%",
"$$#$##",
"@@@@@@",
"++++++",
"oooooo",
"oooooo",
"oooooo",
"oooooo",
"oooooo",
"oooooo",
"oooooo",
"XXXXXX",
"......"
};
